# xmcd
#
# Track frame offsets: 
#        150
#        11330
#        25405
#        37990
#        50775
#        65962
#        81452
#        93337
#        103115
#        114735
#        128865
#        143797
#        154922
#        164695
#        175720
#        188472
#
# Disc length: 2677 seconds
#
# Revision: 9
# Processed by: cddbd v1.5.2PL0 Copyright (c) Steve Scherf et al.
# Submitted via: ExactAudioCopyFreeDBPlugin 1.0
#
DISCID=de0a7310
DTITLE=Various Artist - Boom Boom - Classic Blues
DYEAR=1997
DGENRE=Blues
TTITLE0=John Lee Hooker - Boom boom
TTITLE1=Ray Charles - Walkin' and talkin' (to myself) (talkin' bout me)
TTITLE2=Billie Holiday - Don't explain
TTITLE3=Muddy Waters - Forty days and forty nights
TTITLE4=Lightnin' Hopkins - Bring me my shotgun
TTITLE5=B. B. King - How blue can you get
TTITLE6=Gatemouth Moore - Did you ever love a woman
TTITLE7=Leadbelly - How long
TTITLE8=Jimmy Reed - Where can you be
TTITLE9=Joe Turner - Wee baby blues
TTITLE10=Elmore James - It hurts me too (when things go wrong)
TTITLE11=Billie Holiday - I love you, Porgy
TTITLE12=John Lee Hooker - Dusty road
TTITLE13=Roy Milton - Information blues
TTITLE14=B. B. King - Please love me
TTITLE15=Howlin' Wolf - Ain't superstitious
EXTD=YEAR: 1997 ID3G: 0
EXTT0=
EXTT1=
EXTT2=
EXTT3=
EXTT4=
EXTT5=
EXTT6=
EXTT7=
EXTT8=
EXTT9=
EXTT10=
EXTT11=
EXTT12=
EXTT13=
EXTT14=
EXTT15=
PLAYORDER=
